<mxfile host="app.diagrams.net" modified="2021-01-06T12:37:58.669Z" agent="5.0 (Macintosh; Intel Mac OS X 10_15_7) AppleWebKit/537.36 (KHTML, like Gecko) Chrome/87.0.4280.88 Safari/537.36" etag="cpikmXtd9xPf0thIxMn4" version="14.1.8" type="github">
  <diagram id="q5YtvXUmhZj4kL3F4GeH" name="Page-1">
    <mxGraphModel dx="788" dy="473" grid="1" gridSize="10" guides="1" tooltips="1" connect="1" arrows="1" fold="1" page="1" pageScale="1" pageWidth="827" pageHeight="1169" math="0" shadow="0">
      <root>
        <mxCell id="0" />
        <mxCell id="1" parent="0" />
        <mxCell id="yfnuyr-cLtOHxYWrwrcd-1" value="Cinema" style="rounded=0;whiteSpace=wrap;html=1;" vertex="1" parent="1">
          <mxGeometry x="130" y="50" width="120" height="60" as="geometry" />
        </mxCell>
      </root>
    </mxGraphModel>
  </diagram>
</mxfile>
